<?xml version="1.0" standalone="no"?>
<!DOCTYPE svg PUBLIC "-//W3C//DTD SVG 20010904//EN"
 "http://www.w3.org/TR/2001/REC-SVG-20010904/DTD/svg10.dtd">
<svg version="1.0" xmlns="http://www.w3.org/2000/svg"
 width="512.000000pt" height="512.000000pt" viewBox="0 0 512.000000 512.000000"
 preserveAspectRatio="xMidYMid meet">
<metadata>
Created by potrace 1.14, written by Peter Selinger 2001-2017
</metadata>
<g transform="translate(0.000000,512.000000) scale(0.100000,-0.100000)"
fill="#000000" stroke="none">
<path d="M3545 4273 c-424 -52 -743 -300 -836 -648 -31 -117 -31 -312 0 -413
5 -18 10 -33 10 -35 0 -1 4 -15 10 -30 6 -16 8 -33 5 -39 -4 -6 -2 -8 3 -5 6
4 19 -10 28 -31 10 -20 27 -43 37 -51 11 -7 17 -20 14 -28 -3 -8 -1 -11 4 -8
6 3 10 1 10 -5 0 -6 4 -9 9 -6 5 3 14 0 20 -8 7 -8 8 -16 2 -18 -5 -1 3 -12
17 -22 l27 -20 -19 22 c-24 27 -10 28 24 2 14 -11 31 -20 38 -20 6 0 12 -5 12
-11 0 -5 3 -8 8 -5 4 2 27 0 52 -5 25 -6 61 -11 80 -13 22 -2 34 -7 32 -15 -1
-7 2 -10 8 -6 6 3 8 11 5 16 -3 5 8 7 25 5 17 -2 32 0 35 3 2 4 19 8 38 9 52
4 146 54 202 108 28 27 49 50 48 51 -7 7 -2 34 5 29 4 -2 8 3 9 12 0 9 4 35 8
57 29 150 -24 283 -140 354 -71 43 -131 54 -251 46 -117 -8 -139 -4 -158 34
-21 40 -7 199 17 184 6 -3 7 -1 3 6 -9 14 42 104 54 96 6 -3 7 0 4 8 -3 8 2
17 11 21 9 3 14 10 11 14 -3 5 6 14 20 21 14 6 23 15 20 19 -2 4 12 19 32 32
20 14 43 31 51 38 7 7 20 11 27 8 8 -3 13 -1 11 5 -1 6 5 15 13 19 37 21 114
53 127 53 7 0 13 4 13 8 0 8 55 22 67 17 5 -2 7 -7 5 -11 -1 -5 2 -6 8 -2 6 3
7 11 4 17 -5 7 2 9 20 4 18 -4 25 -3 21 4 -8 14 142 17 199 3 12 -2 38 -7 59
-10 29 -4 37 -10 32 -21 -4 -12 -3 -13 9 -2 21 17 133 -38 189 -94 53 -52 89
-96 79 -96 -4 0 -2 -4 4 -8 18 -12 85 -155 80 -169 -3 -7 -2 -13 3 -13 5 0 12
-17 16 -37 5 -21 10 -47 12 -58 2 -11 5 -36 6 -57 1 -20 5 -34 10 -31 4 2 8
-17 9 -44 1 -26 3 -66 5 -88 7 -70 6 -298 0 -360 -42 -381 -236 -699 -658
-1080 -31 -27 -98 -88 -150 -135 -228 -206 -383 -372 -547 -585 -27 -35 -105
-175 -144 -260 -64 -138 -70 -155 -55 -156 6 -1 26 -2 42 -3 19 -1 29 -7 27
-15 -1 -7 2 -10 8 -6 6 3 8 11 4 16 -3 6 6 8 23 6 15 -3 27 -10 25 -16 -1 -7
2 -10 8 -6 6 3 8 11 4 16 -4 7 5 9 22 7 18 -2 28 -8 26 -16 -1 -8 2 -11 8 -7
6 3 8 11 4 16 -3 6 6 8 23 6 15 -3 27 -10 25 -16 -1 -7 2 -10 8 -6 6 3 8 11 4
16 -4 7 5 9 22 7 18 -2 28 -8 26 -16 -1 -8 2 -11 8 -7 6 3 8 11 5 16 -4 5 3 9
15 9 14 0 19 -4 14 -12 -6 -10 -5 -10 7 -1 22 18 355 13 351 -5 -1 -8 2 -11 8
-7 6 3 8 11 4 16 -3 6 6 8 23 6 15 -3 27 -10 25 -16 -1 -7 2 -10 8 -6 6 3 8
11 4 16 -4 7 5 9 22 7 18 -2 28 -8 26 -16 -1 -8 2 -11 8 -7 6 3 8 10 5 15 -3
5 21 8 52 7 42 -2 57 -6 55 -15 -1 -8 2 -11 8 -7 6 3 8 11 5 16 -4 5 3 9 15 9
14 0 19 -4 14 -12 -6 -10 -5 -10 7 -1 22 18 195 13 191 -5 -1 -8 2 -11 8 -7 6
3 8 11 4 16 -3 6 6 8 23 6 15 -3 27 -10 25 -16 -1 -7 2 -10 8 -6 6 3 8 11 4
16 -4 7 5 9 22 7 18 -2 28 -8 26 -16 -1 -8 2 -11 8 -7 6 3 8 11 4 16 -3 6 6 8
23 6 15 -3 27 -10 25 -16 -1 -7 2 -10 8 -6 6 3 8 11 4 16 -4 7 5 9 22 7 18 -2
28 -8 26 -16 -1 -8 2 -11 8 -7 6 3 8 11 5 16 -4 5 3 9 15 9 14 0 19 -4 14 -12
-6 -9 -3 -9 9 0 18 15 41 7 31 -10 -4 -7 -2 -8 5 -4 6 4 9 12 5 17 -3 6 6 8
23 6 15 -3 27 -10 25 -16 -1 -7 2 -10 8 -6 6 3 8 11 4 16 -4 7 5 9 22 7 18 -2
28 -8 26 -16 -1 -8 2 -11 8 -7 6 3 8 11 4 16 -3 6 6 8 23 6 15 -3 27 -10 25
-16 -1 -7 2 -10 8 -6 6 3 8 11 4 16 -4 7 5 9 22 7 18 -2 28 -8 26 -16 -1 -8 2
-11 8 -7 6 3 8 11 5 16 -4 5 3 9 15 9 14 0 19 -4 14 -13 -6 -9 -3 -8 8 1 21
17 74 12 70 -6 -1 -8 2 -11 8 -7 6 3 8 10 6 14 -3 4 30 7 72 6 58 0 76 -3 74
-13 -1 -8 2 -11 8 -7 6 3 8 11 4 17 -3 5 2 9 12 8 11 -1 51 -2 89 -1 l70 1 2
73 c3 157 20 396 39 537 3 25 6 57 7 73 0 15 3 27 6 27 3 0 6 15 6 33 1 41 14
128 22 140 3 6 8 28 10 51 5 52 9 77 15 96 3 8 10 34 15 58 9 36 8 42 -6 43
-9 0 -35 2 -58 3 l-42 3 -10 -46 c-6 -25 -13 -62 -16 -81 -3 -19 -7 -46 -10
-60 -3 -14 -7 -38 -10 -55 -3 -16 -7 -41 -10 -55 -2 -13 -7 -42 -11 -65 -3
-22 -8 -47 -9 -55 -2 -8 -4 -23 -4 -32 -1 -17 -45 -18 -778 -18 l-778 0 50 47
c28 25 75 65 105 87 30 22 58 45 62 51 5 7 8 7 8 0 0 -7 3 -7 8 0 4 6 16 17
26 25 18 13 19 13 11 0 -5 -8 6 0 24 18 18 17 36 30 41 27 4 -3 11 2 14 11 3
8 10 12 16 9 5 -3 10 -2 10 3 0 6 7 13 16 16 12 5 15 2 10 -9 -3 -9 -2 -13 4
-10 6 3 10 13 10 21 0 8 8 17 18 21 9 3 29 14 43 24 14 10 29 16 33 12 3 -3 6
-2 6 4 0 5 19 18 43 29 23 10 48 24 55 31 8 7 17 11 22 8 5 -3 10 -1 12 4 3 8
106 65 120 66 3 0 9 3 13 7 4 4 13 4 21 1 8 -3 14 -2 12 3 -2 5 0 9 3 9 4 0
15 7 25 16 33 29 102 59 121 53 14 -5 15 -4 4 4 -11 8 -10 12 8 22 18 9 26 9
39 -2 15 -11 15 -11 5 3 -10 13 -7 18 19 34 17 10 28 13 24 7 -3 -6 -1 -14 6
-18 7 -4 10 -4 6 1 -10 11 10 45 27 45 8 0 15 4 15 8 0 4 14 16 30 25 17 10
30 16 30 13 0 -3 11 5 24 17 38 35 55 47 63 47 5 0 17 11 27 25 14 19 22 22
32 14 10 -8 11 -5 7 13 -3 13 -3 20 1 17 4 -4 23 10 43 30 19 20 39 35 44 33
5 -1 8 1 7 5 -4 12 53 84 61 78 4 -2 8 2 8 9 0 7 14 34 32 59 33 49 94 170 98
197 1 8 7 16 13 18 5 2 8 7 5 11 -2 4 1 25 7 47 7 21 12 41 13 44 1 3 5 28 9
55 4 28 10 57 13 65 12 31 10 317 -3 379 -54 266 -178 463 -388 620 -146 109
-392 210 -576 237 -25 3 -70 9 -99 14 -56 7 -272 10 -326 3z"/>
<path d="M1803 4242 c-23 -2 -44 -9 -47 -17 -2 -7 -31 -49 -62 -92 -32 -43
-96 -130 -142 -193 -143 -195 -431 -590 -549 -753 -43 -59 -83 -113 -88 -120
-6 -7 -63 -84 -127 -172 -64 -88 -187 -258 -275 -377 -87 -119 -165 -226 -173
-238 -22 -32 -149 -202 -163 -220 -45 -55 -47 -62 -47 -186 l0 -122 127 3
c100 1 134 -2 153 -13 20 -13 23 -13 13 -1 -10 12 54 14 467 14 316 0 476 -3
473 -10 -3 -5 0 -4 8 3 16 14 33 16 24 2 -3 -5 -1 -10 4 -10 6 0 11 5 11 10 0
6 4 10 10 10 5 0 7 -8 3 -17 -5 -15 -3 -14 10 2 l16 20 2 -20 c4 -61 3 -768
-1 -773 -3 -4 -106 -7 -230 -7 l-225 0 -3 -62 c-3 -55 -1 -63 15 -64 10 0 43
-1 73 -2 40 -1 54 -6 52 -15 -1 -8 2 -11 8 -7 6 3 8 11 4 16 -3 6 6 8 23 6 15
-3 27 -10 25 -16 -1 -7 2 -10 8 -6 6 3 8 11 4 16 -4 7 5 9 22 7 18 -2 28 -8
26 -16 -1 -8 2 -11 8 -7 6 3 8 11 4 16 -3 6 6 8 23 6 15 -3 27 -10 25 -16 -1
-7 2 -10 8 -6 6 3 8 11 4 16 -4 7 5 9 22 7 18 -2 28 -8 26 -16 -1 -8 2 -11 8
-7 6 3 8 11 5 16 -4 5 3 9 15 9 14 0 19 -4 14 -12 -6 -10 -5 -10 7 -1 22 17
235 13 231 -5 -1 -8 2 -11 8 -7 6 3 8 10 6 14 -3 4 8 8 25 9 20 0 27 -3 22
-11 -5 -9 -3 -9 8 -1 20 16 95 13 91 -4 -1 -8 2 -11 8 -7 6 3 8 10 5 15 -3 5
21 8 52 7 42 -2 57 -6 55 -15 -1 -8 2 -11 8 -7 6 3 8 11 4 16 -3 6 6 8 23 6
15 -3 27 -10 25 -16 -1 -7 2 -10 8 -6 6 3 8 11 4 16 -4 7 5 9 22 7 18 -2 28
-8 26 -16 -1 -8 2 -11 8 -7 6 3 8 11 4 16 -3 6 6 8 23 6 15 -3 27 -10 25 -16
-1 -7 2 -10 8 -6 6 3 8 11 4 16 -4 7 5 9 22 7 18 -2 28 -8 26 -16 -1 -8 2 -11
8 -7 6 3 8 11 5 16 -4 5 3 9 15 9 14 0 19 -4 14 -12 -6 -9 -3 -9 9 0 18 15 41
7 31 -10 -4 -7 -2 -8 5 -4 6 4 9 12 5 17 -3 6 6 8 23 6 15 -3 27 -10 25 -16
-1 -7 2 -10 8 -6 6 3 8 11 4 16 -4 7 5 9 22 7 18 -2 28 -8 26 -16 -1 -8 2 -11
8 -7 6 3 8 11 4 16 -3 6 6 8 23 6 15 -3 27 -10 25 -16 -1 -7 2 -10 8 -6 6 3 8
11 4 16 -4 7 5 9 22 7 18 -2 28 -8 26 -16 -1 -8 2 -11 8 -7 6 3 8 11 5 16 -4
5 11 9 32 9 l39 0 -2 52 c-1 29 -2 58 -3 64 -1 7 -74 10 -223 10 l-223 0 -2
394 -2 395 187 0 187 0 3 277 2 277 -77 0 c-43 0 -128 0 -190 0 l-112 1 0 961
c0 528 -1 963 -4 965 -5 5 -256 10 -314 6z m-349 -1304 c-1 -337 -2 -616 -3
-620 -1 -4 -199 -7 -442 -7 -333 0 -439 3 -436 12 2 7 9 12 14 12 6 0 15 4 20
9 5 5 3 6 -4 2 -7 -4 -13 -3 -13 2 0 15 26 33 35 24 5 -4 5 -1 1 6 -7 12 27
66 36 57 3 -3 5 1 5 9 0 21 57 96 69 92 7 -3 10 3 7 13 -3 11 2 21 12 25 9 3
13 10 10 16 -3 6 1 13 9 16 9 3 16 10 16 16 0 11 64 99 103 140 9 10 17 21 18
26 1 4 6 6 11 4 6 -2 8 4 4 13 -3 8 2 23 12 33 10 10 27 33 39 52 12 19 30 44
40 55 10 11 35 46 57 78 21 31 42 57 47 57 5 0 8 3 7 8 -5 13 63 103 73 97 5
-3 6 1 3 9 -4 10 -1 16 7 16 7 0 9 3 6 7 -10 9 14 34 26 26 6 -4 7 -1 2 7 -4
7 -4 15 1 19 5 3 14 13 19 22 31 52 128 179 136 179 5 0 8 6 7 13 -2 6 3 11
10 9 8 -1 11 1 8 6 -4 7 19 52 27 52 1 0 1 -276 1 -612z"/>
<path d="M3680 4120 c-9 -6 -10 -10 -3 -10 6 0 15 5 18 10 8 12 4 12 -15 0z"/>
<path d="M3215 2860 c3 -5 8 -10 11 -10 2 0 4 5 4 10 0 6 -5 10 -11 10 -5 0
-7 -4 -4 -10z"/>
<path d="M3069 2843 c-13 -16 -12 -17 4 -4 9 7 17 15 17 17 0 8 -8 3 -21 -13z"/>
<path d="M4120 2040 c-9 -6 -10 -10 -3 -10 6 0 15 5 18 10 8 12 4 12 -15 0z"/>
<path d="M3935 1949 c-4 -6 -5 -12 -2 -15 2 -3 7 2 10 11 7 17 1 20 -8 4z"/>
<path d="M355 1720 c-3 -5 -1 -10 4 -10 6 0 11 5 11 10 0 6 -2 10 -4 10 -3 0
-8 -4 -11 -10z"/>
<path d="M4786 818 c3 -5 10 -6 15 -3 13 9 11 12 -6 12 -8 0 -12 -4 -9 -9z"/>
</g>
</svg>
